<svg version="1.0" xmlns="http://www.w3.org/2000/svg"
    width="500.000000pt" height="500.000000pt" viewBox="0 0 500.000000 500.000000"
    preserveAspectRatio="xMidYMid meet">

    <g transform="translate(0.000000,500.000000) scale(0.100000,-0.100000)"
        fill="#000000" stroke="none">
        <path
            d="M1745 2846 c-77 -22 -138 -51 -224 -106 -126 -81 -194 -168 -208
            -265 -9 -72 23 -126 74 -124 14 0 13 2 -5 9 -13 6 -30 26 -38 46 -30 71 15
            176 113 264 98 87 227 155 334 175 48 9 71 -12 59 -54 -4 -16 -45 -101 -91
            -189 -73 -141 -83 -168 -84 -214 l0 -53 37 -3 c64 -5 151 50 337 217 l71 63
            -38 -80 c-85 -175 -152 -282 -176 -282 -26 0 -152 -70 -198 -110 -56 -49 -96
            -123 -78 -145 45 -54 163 29 287 203 35 48 51 62 71 63 24 2 24 2 5 6 -13 2
            -23 6 -23 8 0 1 32 58 70 125 67 115 130 243 130 261 0 5 -9 9 -19 9 -11 0
            -40 -24 -66 -54 -105 -124 -314 -280 -365 -274 -23 3 -25 7 -24 47 1 34 20 82
            87 215 90 177 103 212 89 234 -13 20 -72 23 -127 8z m165 -615 c0 -15 -96
            -135 -144 -179 -47 -44 -91 -67 -107 -56 -5 3 -9 17 -9 31 0 34 107 139 185
            180 64 34 75 38 75 24z" />
        <path
            d="M3228 2719 c-44 -110 -160 -326 -216 -403 -52 -72 -62 -81 -110 -97
            -63 -20 -77 -31 -68 -54 9 -24 51 -12 101 28 40 32 41 32 168 35 l127 4 -12
            -27 c-11 -24 -10 -29 7 -41 10 -8 38 -14 61 -14 36 0 47 5 73 36 20 23 38 33
            49 30 9 -2 44 -7 77 -10 l60 -4 -50 13 c-27 7 -60 14 -72 14 -27 1 -28 10 -9
            56 10 23 28 41 56 55 23 12 40 24 37 27 -3 2 -14 0 -25 -6 -34 -18 -43 -14
            -32 15 15 38 13 44 -19 44 -59 0 -104 -77 -53 -89 20 -5 16 -10 -40 -42 -62
            -35 -66 -36 -205 -43 -79 -4 -143 -5 -143 -2 0 3 25 42 55 87 86 125 228 419
            212 436 -4 3 -17 -18 -29 -48z m202 -326 c0 -10 -32 -43 -42 -43 -12 0 -10 24
            4 38 13 13 38 16 38 5z m-50 -132 c-8 -16 -21 -21 -52 -21 -48 0 -48 0 12 34
            47 26 59 22 40 -13z m-45 -40 l30 -6 -23 -23 c-15 -15 -34 -22 -61 -22 -47 0
            -59 14 -35 41 17 19 36 22 89 10z m-439 -37 c-23 -16 -50 -19 -41 -3 8 12 48
            29 55 22 3 -3 -4 -11 -14 -19z" />
        <path
            d="M2286 2369 c-22 -55 -9 -72 36 -46 20 12 34 14 42 8 8 -7 25 -2 52
            14 21 13 34 25 28 25 -5 0 -19 -7 -30 -15 -31 -24 -45 -19 -33 11 15 42 2 41
            -43 -2 -42 -40 -42 -40 -22 26 12 38 -14 20 -30 -21z" />
        <path
            d="M2488 2375 c-30 -49 -21 -62 16 -22 33 36 56 47 56 26 0 -5 5 -7 11
            -4 20 13 2 30 -31 30 -26 0 -37 -6 -52 -30z" />
        <path
            d="M2146 2381 c-10 -11 -16 -28 -14 -38 8 -43 88 -14 88 32 0 21 -5 25
            -28 25 -16 0 -37 -9 -46 -19z m52 -13 c-6 -16 -36 -34 -44 -25 -9 9 15 37 33
            37 8 0 13 -5 11 -12z" />
        <path
            d="M3214 2375 c-13 -21 -14 -28 -4 -41 18 -21 49 -14 73 18 24 32 16 48
            -23 48 -20 0 -35 -8 -46 -25z m56 -3 c0 -13 -23 -32 -37 -32 -11 0 -11 5 -3
            20 10 19 40 28 40 12z" />
        <path
            d="M3590 2387 c-29 -15 -38 -52 -15 -60 23 -9 62 9 70 32 12 39 -10 51
            -55 28z m40 -9 c0 -14 -30 -48 -42 -48 -14 0 -9 28 8 44 18 19 34 21 34 4z" />
        <path d="M975 2370 c-14 -6 -4 -9 38 -9 32 -1 57 3 57 9 0 12 -67 12 -95 0z" />
        <path
            d="M3935 2370 c-4 -6 17 -10 54 -10 34 0 61 4 61 10 0 6 -24 10 -54 10
            -30 0 -58 -4 -61 -10z" />
    </g>
</svg>